<svg id="Layer_1" data-name="Layer 1" xmlns="http://www.w3.org/2000/svg" viewBox="0 0 599.59 317.26"><defs><style>.cls-1{fill:#000000;}</style></defs><polygon class="cls-1" points="227.72 135.27 227.72 64.65 132.1 64.65 64.65 132.1 64.65 252.6 157.45 252.6 183.44 226.61 137.07 226.61 137.07 161.96 292.38 161.96 292.38 317.26 227.72 317.26 227.72 273.77 184.22 317.26 0 317.26 0 105.32 105.31 0 292.38 0 292.38 135.27 227.72 135.27"/><path class="cls-1" d="M629.23,341.17,517.16,453.23v205.2H685L799.71,543.76V341.17Zm-47.41,252.6V480L656,405.82h79V517l-76.8,76.79Z" transform="translate(-200.12 -341.17)"/></svg>