<svg width="366" height="55" viewBox="0 0 366 55" fill="none" xmlns="http://www.w3.org/2000/svg">
<g clip-path="url(#clip0_4_51)">
<path d="M176.8 27.5L175.254 29.0508L156.592 47.7668L150.444 41.6001L159.927 32.0833H140.957L115.129 6.17895L121.289 0L127.428 6.17488L144.56 23.3603H160.374L150.444 13.3999L156.592 7.22913L175.254 25.9492L176.8 27.5Z" fill="#4E16A8"/>
<path d="M250.871 48.821L244.711 55L238.572 48.8251L221.44 31.6396H205.626L215.56 41.6041L209.408 47.7708L190.746 29.0508L189.204 27.5L190.75 25.9532L209.408 7.23315L215.56 13.3999L206.073 22.9166H225.043L250.871 48.821Z" fill="#4E16A8"/>
<path d="M366 22.9167V31.6397H249.236L240.536 22.9167H366Z" fill="#4E16A8"/>
<path d="M116.322 22.9167L125.022 31.6397H0V22.9167H116.322Z" fill="#4E16A8"/>
</g>
<defs>
<clipPath id="clip0_4_51">
<rect width="366" height="55" fill="white"/>
</clipPath>
</defs>
</svg>
